<?xml version="1.0" encoding="UTF-8" standalone="no"?>
<svg
   xmlns:dc="http://purl.org/dc/elements/1.1/"
   xmlns:cc="http://creativecommons.org/ns#"
   xmlns:rdf="http://www.w3.org/1999/02/22-rdf-syntax-ns#"
   xmlns:svg="http://www.w3.org/2000/svg"
   xmlns="http://www.w3.org/2000/svg"
   xmlns:sodipodi="http://sodipodi.sourceforge.net/DTD/sodipodi-0.dtd"
   xmlns:inkscape="http://www.inkscape.org/namespaces/inkscape"
   sodipodi:docname="broom.svg"
   inkscape:version="1.0 (4035a4fb49, 2020-05-01)"
   width="32.0px"
   height="32.0px"
   viewBox="0 0 32.0 32.0"
   version="1.1"
   id="SVGRoot">
  <defs
     id="defs127" />
  <sodipodi:namedview
     inkscape:window-maximized="1"
     inkscape:window-y="-8"
     inkscape:window-x="-8"
     inkscape:window-height="995"
     inkscape:window-width="1920"
     showgrid="true"
     inkscape:document-rotation="0"
     inkscape:current-layer="layer1"
     inkscape:document-units="px"
     inkscape:cy="17.228597"
     inkscape:cx="6.7664406"
     inkscape:zoom="22.578853"
     inkscape:pageshadow="2"
     inkscape:pageopacity="0.0"
     borderopacity="1.0"
     bordercolor="#666666"
     pagecolor="#ffffff"
     id="base">
    <inkscape:grid
       type="xygrid"
       id="grid136" />
  </sodipodi:namedview>
  <metadata
     id="metadata130">
    <rdf:RDF>
      <cc:Work
         rdf:about="">
        <dc:format>image/svg+xml</dc:format>
        <dc:type
           rdf:resource="http://purl.org/dc/dcmitype/StillImage" />
        <dc:title></dc:title>
      </cc:Work>
    </rdf:RDF>
  </metadata>
  <g
     id="layer1"
     inkscape:groupmode="layer"
     inkscape:label="レイヤー 1">
    <g
       style="opacity:1;fill:#1a1a1a"
       id="g10"
       transform="matrix(0.06250052,0,0,0.06250052,0,-0.04514911)">
      <path
         class="st0"
         d="m 332.571,140.81 -16.665,16.648 c -41.547,-24.17 -95.688,-18.468 -131.288,17.116 l 153.521,153.52 c 35.583,-35.592 41.294,-89.732 17.115,-131.278 l 16.666,-16.657 z"
         style="fill:#1a1a1a"
         id="path4" />
      <path
         class="st0"
         d="m 0,299.943 c 0,0 9.585,18.251 28.989,45.303 14.864,-9 51.042,-31.664 90.012,-61.833 l 6.324,6.332 c 0,0 -42.7,39.908 -82.445,74.058 5.748,7.405 12.09,15.206 19.026,23.278 21.441,-18.549 45.223,-39.781 62.447,-57.014 l 8.756,4.865 c 0,0 -29.692,31.691 -60.914,63.788 6.558,7.279 13.584,14.701 21.079,22.196 18.954,18.954 37.494,34.692 54.158,47.448 16.576,-19.124 44.934,-52.032 53.69,-63.482 l 9.712,11.665 c 0,0 -26.052,39.42 -40.502,68.401 26.269,17.935 43.907,26.331 43.907,26.331 C 245.57,456.625 328.934,341.777 328.934,341.777 L 172.997,185.825 c 0,0 -74.625,62.383 -172.997,114.118 z"
         style="fill:#1a1a1a"
         id="path6-6" />
      <rect
         x="334.30399"
         y="62.854"
         transform="matrix(0.7071,-0.7071,0.7071,0.7071,67.7361,328.4017)"
         class="st0"
         width="191.963"
         height="39.162998"
         style="fill:#1a1a1a"
         id="rect8" />
    </g>
  </g>
  <style
     type="text/css"
     id="style98">
	.st0{fill:#4B4B4B;}
</style>
</svg>
