<?xml version="1.0" encoding="UTF-8" standalone="no"?>
<svg
   xmlns:dc="http://purl.org/dc/elements/1.1/"
   xmlns:cc="http://creativecommons.org/ns#"
   xmlns:rdf="http://www.w3.org/1999/02/22-rdf-syntax-ns#"
   xmlns:svg="http://www.w3.org/2000/svg"
   xmlns="http://www.w3.org/2000/svg"
   xmlns:sodipodi="http://sodipodi.sourceforge.net/DTD/sodipodi-0.dtd"
   xmlns:inkscape="http://www.inkscape.org/namespaces/inkscape"
   sodipodi:docname="directory_w.svg"
   inkscape:version="1.0 (4035a4fb49, 2020-05-01)"
   width="32.0px"
   height="32.0px"
   viewBox="0 0 32.0 32.0"
   version="1.1"
   id="SVGRoot">
  <defs
     id="defs127" />
  <sodipodi:namedview
     inkscape:window-maximized="1"
     inkscape:window-y="-8"
     inkscape:window-x="-8"
     inkscape:window-height="995"
     inkscape:window-width="1920"
     showgrid="true"
     inkscape:document-rotation="0"
     inkscape:current-layer="layer1"
     inkscape:document-units="px"
     inkscape:cy="17.228597"
     inkscape:cx="6.7664406"
     inkscape:zoom="22.578853"
     inkscape:pageshadow="2"
     inkscape:pageopacity="0.0"
     borderopacity="1.0"
     bordercolor="#666666"
     pagecolor="#ffffff"
     id="base">
    <inkscape:grid
       type="xygrid"
       id="grid136" />
  </sodipodi:namedview>
  <metadata
     id="metadata130">
    <rdf:RDF>
      <cc:Work
         rdf:about="">
        <dc:format>image/svg+xml</dc:format>
        <dc:type
           rdf:resource="http://purl.org/dc/dcmitype/StillImage" />
        <dc:title></dc:title>
      </cc:Work>
    </rdf:RDF>
  </metadata>
  <g
     id="layer1"
     inkscape:groupmode="layer"
     inkscape:label="レイヤー 1">
    <path
       id="path6"
       style="fill:#1a1a1a;stroke-width:0.067108"
       d="m 31.30225,13.068191 -0.01313,-0.03084 -0.0175,-0.0284 C 30.73687,12.099895 29.845557,11.54139 28.88312,11.54139 h -4.99437 l -0.789562,-2.6022964 -0.02406,0.00692 C 22.522875,7.5622604 21.335188,6.627408 19.980188,6.627408 H 9.061625 C 8.937,6.6255346 8.8090625,6.546057 8.7346875,6.3632513 l 0.00106,0.00252 C 8.19875,5.0047106 7.028625,4.108336 5.72175,4.108336 H 2.904625 c -0.00219,0 -0.00219,-6.485e-4 -0.00325,-6.485e-4 C 1.9565,4.108336 1.0805,4.6473137 0.5424375,5.5273316 L 0.50525,5.5897319 0.497563,5.6168249 C 0.17175,6.1854175 0,6.8436476 0,7.5105964 0,7.8541586 0.046,8.2002428 0.13675,8.5368877 H 0.135625 l 0.001125,0.00252 0.001062,0.00439 0.001125,0.00446 v 0.00122 L 4.896125,26.393765 v 0.0025 l 0.02075,0.07443 c 0.432,1.57089 1.6950625,2.636308 3.1233125,2.636308 l 17.0449375,6.48e-4 c 1.2325,-6.48e-4 2.3425,-0.799964 2.90025,-2.036875 l 0.02731,0.01015 3.59475,-10.965313 0.0044,-0.01448 0.0011,-0.0045 0.0011,-0.0025 c 0.114875,-0.374404 0.170625,-0.765233 0.170625,-1.152318 0,-0.655564 -0.164063,-1.306804 -0.482313,-1.872299 v -0.0014 z M 29.539375,15.249394 26.1,25.739282 l -0.0022,0.0076 c -0.152,0.494231 -0.558812,0.824535 -1.012687,0.824535 l -17.0449375,-0.0013 c -0.469125,0.0013 -0.88475,-0.349327 -1.02575,-0.864959 l -4.777988,-17.92288 0.00106,0.0031 C 2.2123725,7.695236 2.2003105,7.6025723 2.2003105,7.510557 c 0,-0.1879216 0.050312,-0.3719522 0.141125,-0.5219725 l -0.00113,0.00122 C 2.47925,6.765467 2.687,6.6449897 2.9024375,6.6449897 h 2.819375 c 0.422125,0 0.819125,0.2887277 1.0115625,0.7735194 0.4155625,1.0521593 1.32,1.7449761 2.3283125,1.7449761 H 19.98025 c 0.518375,0 0.994125,0.3952983 1.165813,1.0200228 l 0.0044,0.01513 0.562125,1.85025 h -8.72925 c -1.267438,0 -2.38625,0.938096 -2.809438,2.315442 l -2.2255,7.414834 1.66225,0.663202 2.223313,-7.40597 -0.0022,0.0088 c 0.185875,-0.596334 0.6485,-0.96699 1.151563,-0.96699 H 28.88325 c 0.217625,0 0.432,0.125449 0.56875,0.358118 0.08525,0.146201 0.133375,0.323963 0.132313,0.505544 -6.3e-5,0.103979 -0.01538,0.207953 -0.04494,0.307534 z"
       class="st0" />
  </g>
  <style
     type="text/css"
     id="style98">
	.st0{fill:#4B4B4B;}
</style>
</svg>
