<?xml version="1.0" encoding="UTF-8" standalone="no"?>
<svg
   xmlns:dc="http://purl.org/dc/elements/1.1/"
   xmlns:cc="http://creativecommons.org/ns#"
   xmlns:rdf="http://www.w3.org/1999/02/22-rdf-syntax-ns#"
   xmlns:svg="http://www.w3.org/2000/svg"
   xmlns="http://www.w3.org/2000/svg"
   xmlns:sodipodi="http://sodipodi.sourceforge.net/DTD/sodipodi-0.dtd"
   xmlns:inkscape="http://www.inkscape.org/namespaces/inkscape"
   id="SVGRoot"
   version="1.1"
   viewBox="0 0 32.0 32.0"
   height="32.0px"
   width="32.0px"
   inkscape:version="1.0 (4035a4fb49, 2020-05-01)"
   sodipodi:docname="help.svg">
  <defs
     id="defs127" />
  <sodipodi:namedview
     id="base"
     pagecolor="#ffffff"
     bordercolor="#666666"
     borderopacity="1.0"
     inkscape:pageopacity="0.0"
     inkscape:pageshadow="2"
     inkscape:zoom="22.578853"
     inkscape:cx="6.7664406"
     inkscape:cy="17.228597"
     inkscape:document-units="px"
     inkscape:current-layer="layer1"
     inkscape:document-rotation="0"
     showgrid="true"
     inkscape:window-width="1920"
     inkscape:window-height="995"
     inkscape:window-x="-8"
     inkscape:window-y="-8"
     inkscape:window-maximized="1">
    <inkscape:grid
       id="grid136"
       type="xygrid" />
  </sodipodi:namedview>
  <metadata
     id="metadata130">
    <rdf:RDF>
      <cc:Work
         rdf:about="">
        <dc:format>image/svg+xml</dc:format>
        <dc:type
           rdf:resource="http://purl.org/dc/dcmitype/StillImage" />
        <dc:title></dc:title>
      </cc:Work>
    </rdf:RDF>
  </metadata>
  <g
     inkscape:label="レイヤー 1"
     inkscape:groupmode="layer"
     id="layer1">
    <g
       style="opacity:1;fill:#1a1a1a"
       id="g10"
       transform="scale(0.0625)">
      <path
         class="st0"
         d="M 437.015,74.978 C 390.77,28.696 326.608,-0.014 256,0 185.393,-0.014 121.223,28.696 74.982,74.978 28.696,121.223 -0.014,185.393 0,256 -0.014,326.608 28.696,390.778 74.982,437.023 121.226,483.304 185.393,512.015 256,512 326.608,512.015 390.77,483.304 437.015,437.023 483.303,390.778 512.015,326.608 512,256 512.015,185.393 483.304,121.223 437.015,74.978 Z m -37.541,37.548 c 36.756,36.8 59.415,87.356 59.429,143.474 -0.014,56.119 -22.674,106.674 -59.429,143.474 C 362.674,436.236 312.111,458.889 256,458.903 199.886,458.889 149.326,436.236 112.526,399.474 75.766,362.674 53.111,312.119 53.096,256 c 0.015,-56.118 22.67,-106.674 59.43,-143.474 36.8,-36.763 87.359,-59.415 143.474,-59.43 56.112,0.016 106.674,22.667 143.474,59.43 z"
         style="fill:#1a1a1a"
         id="path4" />
      <path
         class="st0"
         d="m 242.749,329.326 c -14.208,0 -25.73,11.519 -25.73,25.726 0,14.192 11.522,25.718 25.73,25.718 14.196,0 25.714,-11.526 25.714,-25.718 0,-14.207 -11.518,-25.726 -25.714,-25.726 z"
         style="fill:#1a1a1a"
         id="path6" />
      <path
         class="st0"
         d="m 184.363,173.852 17.515,14.037 c 3.566,2.852 8.674,2.748 12.118,-0.252 0,0 2.152,-3.889 8.896,-7.741 6.778,-3.83 15.57,-6.911 28.708,-6.956 11.462,-0.022 21.459,4.252 28.278,10.097 3.385,2.904 5.918,6.133 7.47,9.11 1.563,2.986 2.133,5.6 2.126,7.585 -0.03,6.711 -1.337,11.104 -3.222,14.837 -1.433,2.8 -3.303,5.274 -5.715,7.674 -3.596,3.6 -8.482,6.926 -13.955,9.985 -5.482,3.082 -11.389,5.808 -17.359,9.096 -6.808,3.778 -14.022,9.194 -19.345,17.326 -2.659,4.015 -4.737,8.622 -6.059,13.466 -1.334,4.867 -1.937,9.956 -1.937,15.148 0,5.541 0,10.096 0,10.096 0,5.215 4.237,9.46 9.463,9.46 h 22.788 c 5.222,0 9.456,-4.245 9.456,-9.46 0,0 0,-4.555 0,-10.096 0,-2 0.23,-3.296 0.452,-4.104 0.374,-1.229 0.585,-1.534 1.208,-2.282 0.626,-0.711 1.896,-1.792 4.237,-3.088 3.419,-1.919 8.915,-4.512 15.141,-7.882 9.322,-5.096 20.648,-12.007 30.204,-23.422 4.748,-5.703 8.948,-12.556 11.86,-20.452 2.918,-7.904 4.503,-16.792 4.489,-26.304 -0.008,-9.637 -2.622,-18.8 -6.882,-26.926 -6.415,-12.207 -16.467,-22.37 -28.919,-29.748 -12.448,-7.341 -27.47,-11.822 -43.777,-11.822 -20.097,-0.052 -36.797,5.192 -49.396,12.444 -12.656,7.222 -18.111,15.629 -18.111,15.629 -2.126,1.852 -3.326,4.534 -3.278,7.341 0.061,2.819 1.353,5.456 3.546,7.204 z"
         style="fill:#1a1a1a"
         id="path8" />
    </g>
  </g>
  <style
     id="style98"
     type="text/css">
	.st0{fill:#4B4B4B;}
</style>
</svg>
