<?xml version="1.0" encoding="UTF-8" standalone="no"?>
<!-- Created with Inkscape (http://www.inkscape.org/) -->

<svg
   xmlns:dc="http://purl.org/dc/elements/1.1/"
   xmlns:cc="http://creativecommons.org/ns#"
   xmlns:rdf="http://www.w3.org/1999/02/22-rdf-syntax-ns#"
   xmlns:svg="http://www.w3.org/2000/svg"
   xmlns="http://www.w3.org/2000/svg"
   xmlns:sodipodi="http://sodipodi.sourceforge.net/DTD/sodipodi-0.dtd"
   xmlns:inkscape="http://www.inkscape.org/namespaces/inkscape"
   version="1.1"
   width="32"
   height="32"
   id="svg2993"
   inkscape:version="0.91 r13725"
   sodipodi:docname="navi_right.svg">
  <sodipodi:namedview
     pagecolor="#ffffff"
     bordercolor="#666666"
     borderopacity="1"
     objecttolerance="10"
     gridtolerance="10"
     guidetolerance="10"
     inkscape:pageopacity="0"
     inkscape:pageshadow="2"
     inkscape:window-width="1650"
     inkscape:window-height="1005"
     id="namedview3014"
     showgrid="true"
     inkscape:snap-bbox="true"
     inkscape:zoom="25.03125"
     inkscape:cx="2.7365798"
     inkscape:cy="14.957759"
     inkscape:window-x="32"
     inkscape:window-y="0"
     inkscape:window-maximized="0"
     inkscape:current-layer="svg2993"
     inkscape:bbox-nodes="true"
     inkscape:snap-bbox-edge-midpoints="true"
     inkscape:bbox-paths="true"
     inkscape:object-paths="true"
     inkscape:snap-intersection-paths="true"
     inkscape:object-nodes="true"
     inkscape:snap-smooth-nodes="true"
     inkscape:snap-midpoints="true">
    <inkscape:grid
       type="xygrid"
       id="grid3016" />
  </sodipodi:namedview>
  <defs
     id="defs2995" />
  <metadata
     id="metadata2998">
    <rdf:RDF>
      <cc:Work
         rdf:about="">
        <dc:format>image/svg+xml</dc:format>
        <dc:type
           rdf:resource="http://purl.org/dc/dcmitype/StillImage" />
        <dc:title />
      </cc:Work>
    </rdf:RDF>
  </metadata>
  <g
     id="g4210"
     transform="matrix(-1,0,0,-1,37,32)" />
  <path
     inkscape:connector-curvature="0"
     id="rect4214"
     d="m 22.501043,6 -0.998956,0 c -0.553422,0 -0.998956,0.446 -0.998956,1 l 0,18 c 0,0.554 0.445534,1 0.998956,1 l 0.998956,0 C 23.054465,26 23.5,25.554 23.5,25 l 0,-18 c 0,-0.554 -0.445535,-1 -0.998957,-1 z"
     style="fill:#1a1a1a;fill-opacity:1;stroke:none" />
  <path
     inkscape:connector-curvature="0"
     id="rect4216"
     d="M 9.3961457,7.4555864 8.7782013,8.2413007 C 8.435861,8.6765864 8.4053019,9.2201386 8.7096829,9.4600277 l 9.8896681,7.7942283 c 0.304382,0.239889 0.825029,0.08258 1.167369,-0.352701 l 0.617945,-0.785715 c 0.342342,-0.435285 0.3729,-0.978838 0.06852,-1.218727 L 10.563515,7.1028848 C 10.259133,6.8629958 9.7384861,7.0203008 9.3961457,7.4555864 Z"
     style="fill:#1a1a1a;fill-opacity:1;stroke:none" />
  <path
     inkscape:connector-curvature="0"
     id="rect4221"
     d="m 8.7741216,23.777428 0.596316,0.802287 c 0.3303588,0.444467 0.8465274,0.615922 1.1573304,0.384429 l 10.098263,-7.521428 c 0.310803,-0.231493 0.295058,-0.775677 -0.0353,-1.220144 l -0.596316,-0.802286 c -0.330359,-0.444467 -0.846527,-0.615923 -1.15733,-0.38443 L 8.7388185,22.557284 c -0.3108023,0.231493 -0.2950578,0.775677 0.035303,1.220144 z"
     style="fill:#1a1a1a;fill-opacity:1;stroke:none" />
</svg>
