<!--?xml version="1.0" encoding="utf-8"?-->
<!-- Generator: Adobe Illustrator 18.1.1, SVG Export Plug-In . SVG Version: 6.00 Build 0)  -->

<svg version="1.1" id="_x32_" xmlns="http://www.w3.org/2000/svg" xmlns:xlink="http://www.w3.org/1999/xlink" x="0px" y="0px" viewBox="0 0 512 512" style="width: 256px; height: 256px; opacity: 1;" xml:space="preserve">
<style type="text/css">
	.st0{fill:#4B4B4B;}
</style>
<g>
	<path class="st0" d="M503.654,101.298h-43.289V58c0-4.61-3.727-8.338-8.329-8.338h-16.833c-4.602,0-8.347,3.728-8.347,8.338v43.298
		h-43.289c-4.602,0-8.329,3.727-8.329,8.329v16.833c0,4.602,3.727,8.346,8.329,8.346h43.289v43.29c0,4.601,3.745,8.337,8.347,8.337
		h16.833c4.602,0,8.329-3.736,8.329-8.337v-43.29h43.289c4.619,0,8.346-3.744,8.346-8.346v-16.833
		C512,105.026,508.273,101.298,503.654,101.298z" style="fill: rgb(75, 75, 75);"></path>
	<path class="st0" d="M500.836,239.74l-0.21-0.428l-0.28-0.394c-8.556-12.616-22.817-20.367-38.216-20.367H382.22l-12.633-36.115
		l-0.385,0.096c-8.836-19.204-27.839-32.178-49.519-32.178H144.986c-1.994-0.026-4.041-1.129-5.231-3.666l0.017,0.035
		c-8.592-18.889-27.314-31.329-48.224-31.329H46.474c-0.035,0-0.035-0.009-0.052-0.009c-15.118,0.009-29.134,7.489-37.743,19.702
		l-0.595,0.866l-0.123,0.376C2.748,144.22,0,153.355,0,162.611c0,4.768,0.736,9.571,2.188,14.243H2.17l0.018,0.035l0.017,0.061
		l0.018,0.062v0.017l76.115,247.645v0.035l0.332,1.033c6.912,21.801,27.121,36.587,49.973,36.587l272.719,0.009
		c19.72-0.009,37.48-11.102,46.404-28.268l0.437,0.141l57.516-152.178l0.07-0.201l0.017-0.062l0.018-0.035
		c1.838-5.196,2.73-10.62,2.73-15.992c0-9.098-2.625-18.136-7.717-25.984V239.74z M472.63,270.011l-55.03,145.58l-0.035,0.106
		c-2.432,6.859-8.941,11.443-16.203,11.443l-272.719-0.017c-7.506,0.017-14.156-4.848-16.412-12.004L35.783,166.382l0.017,0.043
		c-0.402-1.251-0.595-2.537-0.595-3.814c0-2.608,0.805-5.162,2.258-7.244l-0.018,0.017c2.223-3.114,5.547-4.786,8.994-4.786h45.11
		c6.754,0,13.106,4.007,16.185,10.735c6.649,14.602,21.12,24.217,37.253,24.217h174.697c8.294,0,15.906,5.486,18.653,14.156
		l0.07,0.21l8.994,25.678H207.733c-20.279,0-38.18,13.019-44.951,32.134l-35.608,102.904l26.596,9.204l35.573-102.781l-0.035,0.122
		c2.974-8.276,10.376-13.42,18.425-13.42h254.399c3.482,0,6.912,1.741,9.1,4.97c1.364,2.029,2.134,4.496,2.117,7.016
		C473.348,267.186,473.103,268.629,472.63,270.011z" style="fill: rgb(75, 75, 75);"></path>
</g>
</svg>
