<?xml version="1.0" encoding="UTF-8" standalone="no"?>
<svg
   xmlns:dc="http://purl.org/dc/elements/1.1/"
   xmlns:cc="http://creativecommons.org/ns#"
   xmlns:rdf="http://www.w3.org/1999/02/22-rdf-syntax-ns#"
   xmlns:svg="http://www.w3.org/2000/svg"
   xmlns="http://www.w3.org/2000/svg"
   xmlns:sodipodi="http://sodipodi.sourceforge.net/DTD/sodipodi-0.dtd"
   xmlns:inkscape="http://www.inkscape.org/namespaces/inkscape"
   id="SVGRoot"
   version="1.1"
   viewBox="0 0 32.0 32.0"
   height="32.0px"
   width="32.0px"
   inkscape:version="1.0 (4035a4fb49, 2020-05-01)"
   sodipodi:docname="note.svg">
  <defs
     id="defs127" />
  <sodipodi:namedview
     id="base"
     pagecolor="#ffffff"
     bordercolor="#666666"
     borderopacity="1.0"
     inkscape:pageopacity="0.0"
     inkscape:pageshadow="2"
     inkscape:zoom="22.578853"
     inkscape:cx="6.7664406"
     inkscape:cy="17.228597"
     inkscape:document-units="px"
     inkscape:current-layer="layer1"
     inkscape:document-rotation="0"
     showgrid="true"
     inkscape:window-width="1920"
     inkscape:window-height="995"
     inkscape:window-x="-8"
     inkscape:window-y="-8"
     inkscape:window-maximized="1">
    <inkscape:grid
       id="grid136"
       type="xygrid" />
  </sodipodi:namedview>
  <metadata
     id="metadata130">
    <rdf:RDF>
      <cc:Work
         rdf:about="">
        <dc:format>image/svg+xml</dc:format>
        <dc:type
           rdf:resource="http://purl.org/dc/dcmitype/StillImage" />
        <dc:title></dc:title>
      </cc:Work>
    </rdf:RDF>
  </metadata>
  <g
     inkscape:label="レイヤー 1"
     inkscape:groupmode="layer"
     id="layer1">
    <g
       style="opacity:1;fill:#1a1a1a"
       id="g6"
       transform="matrix(0.0625,0,0,0.0625,0,-0.077375)">
      <path
         class="st0"
         d="m 488.875,101.766 c -1.391,-3.016 -3.844,-5.547 -6.969,-6.984 -6.484,-3 -13.891,-5.531 -22.156,-7.781 -12.406,-3.328 -26.766,-5.938 -42.578,-7.766 -15.813,-1.797 -33.078,-2.797 -51.188,-2.797 -24.156,0 -46.797,1.75 -66.516,4.875 -9.875,1.563 -18.984,3.469 -27.266,5.688 -5.844,1.594 -11.234,3.328 -16.203,5.281 -4.969,-1.953 -10.359,-3.688 -16.219,-5.281 -12.391,-3.328 -26.75,-5.938 -42.563,-7.766 -15.828,-1.797 -33.094,-2.797 -51.203,-2.797 -24.156,0 -46.797,1.75 -66.516,4.875 C 69.656,82.875 60.516,84.781 52.25,87 43.984,89.25 36.578,91.781 30.078,94.781 26.953,96.219 24.515,98.75 23.125,101.765 12.313,104.469 0,109.531 0,118.516 c 0,5.609 0,260.422 0,260.422 0,25.047 20.313,45.359 45.359,45.359 h 182.797 v 2.359 c 0,4.922 3.969,8.906 8.875,8.906 h 37.938 c 4.906,0 8.875,-3.984 8.875,-8.906 v -2.359 h 182.797 c 25.047,0 45.359,-20.313 45.359,-45.359 0,0 0,-254.813 0,-260.422 0,-8.985 -12.312,-14.047 -23.125,-16.75 z M 241.781,372.781 c -0.672,-0.188 -1.313,-0.391 -2,-0.594 -12.391,-3.344 -26.75,-5.938 -42.563,-7.766 -15.828,-1.797 -33.094,-2.797 -51.203,-2.797 -24.156,0 -46.797,1.766 -66.516,4.875 -9.844,1.563 -18.984,3.469 -27.25,5.688 -0.688,0.203 -1.328,0.406 -2,0.594 V 117.344 c 2.875,-1 6.016,-1.953 9.406,-2.875 10.656,-2.875 23.75,-5.297 38.391,-6.969 14.672,-1.688 30.891,-2.609 47.969,-2.609 22.766,0 44.047,1.672 62.063,4.516 9.016,1.422 17.203,3.156 24.297,5.063 3.406,0.922 6.547,1.875 9.406,2.875 z m 219.953,0 c -0.672,-0.188 -1.297,-0.391 -1.984,-0.594 -12.406,-3.344 -26.766,-5.938 -42.578,-7.766 -15.813,-1.797 -33.078,-2.797 -51.188,-2.797 -24.156,0 -46.797,1.766 -66.516,4.875 -9.875,1.563 -18.984,3.469 -27.266,5.688 -0.672,0.203 -1.313,0.406 -1.984,0.594 V 117.344 c 2.859,-1 6,-1.953 9.406,-2.875 10.641,-2.875 23.719,-5.297 38.375,-6.969 14.672,-1.688 30.906,-2.609 47.984,-2.609 22.75,0 44.031,1.672 62.063,4.516 9.016,1.422 17.188,3.156 24.297,5.063 3.391,0.922 6.531,1.875 9.391,2.875 z"
         style="fill:#1a1a1a"
         id="path4" />
    </g>
  </g>
  <style
     id="style98"
     type="text/css">
	.st0{fill:#4B4B4B;}
</style>
</svg>
