<?xml version="1.0" encoding="UTF-8" standalone="no"?>
<svg
   xmlns:dc="http://purl.org/dc/elements/1.1/"
   xmlns:cc="http://creativecommons.org/ns#"
   xmlns:rdf="http://www.w3.org/1999/02/22-rdf-syntax-ns#"
   xmlns:svg="http://www.w3.org/2000/svg"
   xmlns="http://www.w3.org/2000/svg"
   xmlns:sodipodi="http://sodipodi.sourceforge.net/DTD/sodipodi-0.dtd"
   xmlns:inkscape="http://www.inkscape.org/namespaces/inkscape"
   sodipodi:docname="plus.svg"
   inkscape:version="1.0 (4035a4fb49, 2020-05-01)"
   width="32.0px"
   height="32.0px"
   viewBox="0 0 32.0 32.0"
   version="1.1"
   id="SVGRoot">
  <defs
     id="defs127" />
  <sodipodi:namedview
     inkscape:window-maximized="1"
     inkscape:window-y="-8"
     inkscape:window-x="-8"
     inkscape:window-height="995"
     inkscape:window-width="1920"
     showgrid="true"
     inkscape:document-rotation="0"
     inkscape:current-layer="layer1"
     inkscape:document-units="px"
     inkscape:cy="17.228597"
     inkscape:cx="6.7664406"
     inkscape:zoom="22.578853"
     inkscape:pageshadow="2"
     inkscape:pageopacity="0.0"
     borderopacity="1.0"
     bordercolor="#666666"
     pagecolor="#ffffff"
     id="base">
    <inkscape:grid
       type="xygrid"
       id="grid136" />
  </sodipodi:namedview>
  <metadata
     id="metadata130">
    <rdf:RDF>
      <cc:Work
         rdf:about="">
        <dc:format>image/svg+xml</dc:format>
        <dc:type
           rdf:resource="http://purl.org/dc/dcmitype/StillImage" />
        <dc:title></dc:title>
      </cc:Work>
    </rdf:RDF>
  </metadata>
  <g
     id="layer1"
     inkscape:groupmode="layer"
     inkscape:label="レイヤー 1">
    <g
       style="opacity:1;fill:#1a1a1a"
       id="g8"
       transform="scale(0.0625)">
      <path
         style="fill:#1a1a1a"
         class="st0"
         d="m 359.244,224.004 h -59.988 c -6.217,0 -11.258,-5.043 -11.258,-11.258 v -59.992 c 0,-6.215 -5.039,-11.254 -11.256,-11.254 h -41.486 c -6.217,0 -11.258,5.039 -11.258,11.254 v 59.992 c 0,6.215 -5.039,11.258 -11.256,11.258 h -59.988 c -6.219,0 -11.258,5.039 -11.258,11.258 v 41.484 c 0,6.215 5.039,11.258 11.258,11.258 h 59.988 c 6.217,0 11.256,5.039 11.256,11.258 v 59.984 c 0,6.219 5.041,11.258 11.258,11.258 h 41.486 c 6.217,0 11.256,-5.039 11.256,-11.258 v -59.984 c 0,-6.219 5.041,-11.258 11.258,-11.258 h 59.988 c 6.217,0 11.258,-5.043 11.258,-11.258 v -41.484 c 0,-6.219 -5.041,-11.258 -11.258,-11.258 z"
         id="path4" />
      <path
         style="fill:#1a1a1a"
         class="st0"
         d="M 256,0 C 114.613,0 0,114.617 0,256 0,397.387 114.613,512 256,512 397.383,512 512,397.387 512,256 512,114.617 397.383,0 256,0 Z m 0,448 C 150.129,448 64,361.871 64,256 64,150.133 150.129,64 256,64 c 105.867,0 192,86.133 192,192 0,105.871 -86.133,192 -192,192 z"
         id="path6" />
    </g>
  </g>
  <style
     type="text/css"
     id="style98">
	.st0{fill:#4B4B4B;}
</style>
</svg>
