<?xml version="1.0" encoding="UTF-8" standalone="no"?>
<!-- Created with Inkscape (http://www.inkscape.org/) -->

<svg
   xmlns:dc="http://purl.org/dc/elements/1.1/"
   xmlns:cc="http://creativecommons.org/ns#"
   xmlns:rdf="http://www.w3.org/1999/02/22-rdf-syntax-ns#"
   xmlns:svg="http://www.w3.org/2000/svg"
   xmlns="http://www.w3.org/2000/svg"
   xmlns:xlink="http://www.w3.org/1999/xlink"
   xmlns:sodipodi="http://sodipodi.sourceforge.net/DTD/sodipodi-0.dtd"
   xmlns:inkscape="http://www.inkscape.org/namespaces/inkscape"
   version="1.1"
   width="32"
   height="16"
   id="svg2985"
   inkscape:version="0.48.4 r9939"
   sodipodi:docname="thumb_zip.svg">
  <metadata
     id="metadata14">
    <rdf:RDF>
      <cc:Work
         rdf:about="">
        <dc:format>image/svg+xml</dc:format>
        <dc:type
           rdf:resource="http://purl.org/dc/dcmitype/StillImage" />
      </cc:Work>
    </rdf:RDF>
  </metadata>
  <defs
     id="defs12">
    <linearGradient
       id="linearGradient4371">
      <stop
         style="stop-color:#e0ffff;stop-opacity:1;"
         offset="0"
         id="stop4373" />
      <stop
         style="stop-color:#aaeeff;stop-opacity:1;"
         offset="1"
         id="stop4375" />
    </linearGradient>
    <linearGradient
       id="linearGradient3759">
      <stop
         style="stop-color:#34aad3;stop-opacity:1;"
         offset="0"
         id="stop3761" />
      <stop
         style="stop-color:#000098;stop-opacity:1;"
         offset="1"
         id="stop3763" />
    </linearGradient>
    <linearGradient
       id="linearGradient3759-8">
      <stop
         style="stop-color:#0087d3;stop-opacity:1"
         offset="0"
         id="stop3761-8" />
      <stop
         style="stop-color:#000085;stop-opacity:1"
         offset="1"
         id="stop3763-2" />
    </linearGradient>
    <linearGradient
       inkscape:collect="always"
       xlink:href="#linearGradient3759-8"
       id="linearGradient2997-6"
       x1="-0.024921907"
       y1="0.049844287"
       x2="0.024922077"
       y2="16"
       gradientUnits="userSpaceOnUse" />
    <linearGradient
       inkscape:collect="always"
       xlink:href="#linearGradient4371"
       id="linearGradient4377"
       x1="0"
       y1="0"
       x2="5"
       y2="6"
       gradientUnits="userSpaceOnUse" />
  </defs>
  <sodipodi:namedview
     pagecolor="#ffffff"
     bordercolor="#666666"
     borderopacity="1"
     objecttolerance="10"
     gridtolerance="10"
     guidetolerance="10"
     inkscape:pageopacity="0"
     inkscape:pageshadow="2"
     inkscape:window-width="1774"
     inkscape:window-height="1053"
     id="namedview10"
     showgrid="true"
     inkscape:zoom="40.125"
     inkscape:cx="4.0383366"
     inkscape:cy="8"
     inkscape:window-x="-9"
     inkscape:window-y="-9"
     inkscape:window-maximized="1"
     inkscape:current-layer="svg2985"
     inkscape:snap-bbox="true">
    <inkscape:grid
       type="xygrid"
       id="grid3767" />
  </sodipodi:namedview>
  <path
     inkscape:connector-curvature="0"
     d="m 2,0 c 1,0 27,0 28,0 1,0 2,1 2,2 0,1 0,11 0,12 0,1 -1,2 -2,2 C 29,16 3,16 2,16 1,16 0,15.067776 0,14 0,12.932224 0,3 0,2 0,1 1,0 2,0 z"
     id="rect2995-7-3-7"
     style="fill:url(#linearGradient4377);fill-opacity:1;stroke:none" />
  <path
     d="m 2.4375,0.5 c 0.96875,0 26.15625,0 27.125,0 0.96875,0 1.9375,0.9375 1.9375,1.8750001 0,0.9374999 0,10.3124999 0,11.2499999 0,0.9375 -0.96875,1.875 -1.9375,1.875 -0.96875,0 -26.15625,0 -27.125,0 C 1.46875,15.5 0.5,14.62604 0.5,13.625 0.5,12.623959 0.5,3.3125 0.5,2.3750001 0.5,1.4375 1.46875,0.5 2.4375,0.5 z"
     id="rect2995-7-3"
     style="fill:#0000a7;fill-opacity:1;stroke:none"
     inkscape:connector-curvature="0" />
  <path
     inkscape:connector-curvature="0"
     style="fill:#ffffff;fill-opacity:1;stroke:none"
     id="path3915"
     d="m 4,2 7,0 0,2 -5,8 5,0 0,2 L 4,14 4,12 9.0000005,4 4,4 z"
     sodipodi:nodetypes="ccccccccccc" />
  <path
     inkscape:connector-curvature="0"
     style="fill:#ffffff;fill-opacity:1;stroke:none"
     id="path3924"
     d="m 15,2 2,0 0,12 c 0,0 -2,0 -2,0 z" />
  <path
     inkscape:connector-curvature="0"
     style="fill:#ffffff;fill-opacity:1;stroke:none"
     id="path3926"
     d="m 21,2 0,12 2,0 0,-5 c 0,0 2,0 3,0 1,0 2,-1 2,-2 0,-8.4398543 0,-2 0,-3 0,-1 -1,-2 -2,-2 -1,0 -5,0 -5,0 z m 2,2 c 0,0 0,0 1,0 1,0 2,0 2,1 0,1 0,0 0,0.9065421 C 26,7 25,7 24,7 23,7 23,7 23,7 z"
     sodipodi:nodetypes="ccccsssscczssscc" />
</svg>
