<?xml version="1.0" encoding="UTF-8" standalone="no"?>
<!-- Created with Inkscape (http://www.inkscape.org/) -->

<svg
   xmlns:dc="http://purl.org/dc/elements/1.1/"
   xmlns:cc="http://creativecommons.org/ns#"
   xmlns:rdf="http://www.w3.org/1999/02/22-rdf-syntax-ns#"
   xmlns:svg="http://www.w3.org/2000/svg"
   xmlns="http://www.w3.org/2000/svg"
   xmlns:xlink="http://www.w3.org/1999/xlink"
   xmlns:sodipodi="http://sodipodi.sourceforge.net/DTD/sodipodi-0.dtd"
   xmlns:inkscape="http://www.inkscape.org/namespaces/inkscape"
   version="1.1"
   width="32"
   height="16"
   id="svg2985"
   inkscape:version="0.48.4 r9939"
   sodipodi:docname="thumb_rar.svg">
  <metadata
     id="metadata14">
    <rdf:RDF>
      <cc:Work
         rdf:about="">
        <dc:format>image/svg+xml</dc:format>
        <dc:type
           rdf:resource="http://purl.org/dc/dcmitype/StillImage" />
      </cc:Work>
    </rdf:RDF>
  </metadata>
  <defs
     id="defs12">
    <linearGradient
       id="linearGradient4345">
      <stop
         style="stop-color:#fff5f4;stop-opacity:1;"
         offset="0"
         id="stop4347" />
      <stop
         style="stop-color:#ffacd2;stop-opacity:1;"
         offset="1"
         id="stop4349" />
    </linearGradient>
    <linearGradient
       id="linearGradient3759">
      <stop
         style="stop-color:#f35b51;stop-opacity:1"
         offset="0"
         id="stop3761" />
      <stop
         style="stop-color:#6b0000;stop-opacity:1"
         offset="1"
         id="stop3763" />
    </linearGradient>
    <linearGradient
       id="linearGradient3759-8">
      <stop
         style="stop-color:#0087d3;stop-opacity:1"
         offset="0"
         id="stop3761-8" />
      <stop
         style="stop-color:#000085;stop-opacity:1"
         offset="1"
         id="stop3763-2" />
    </linearGradient>
    <linearGradient
       inkscape:collect="always"
       xlink:href="#linearGradient3759-8"
       id="linearGradient2997-6"
       x1="-0.024921907"
       y1="0.049844287"
       x2="0.024922077"
       y2="16"
       gradientUnits="userSpaceOnUse" />
    <linearGradient
       inkscape:collect="always"
       xlink:href="#linearGradient4345"
       id="linearGradient4351"
       x1="0"
       y1="0"
       x2="5"
       y2="6"
       gradientUnits="userSpaceOnUse" />
  </defs>
  <sodipodi:namedview
     pagecolor="#ffffff"
     bordercolor="#666666"
     borderopacity="1"
     objecttolerance="10"
     gridtolerance="10"
     guidetolerance="10"
     inkscape:pageopacity="0"
     inkscape:pageshadow="2"
     inkscape:window-width="1774"
     inkscape:window-height="1053"
     id="namedview10"
     showgrid="true"
     inkscape:zoom="40.125"
     inkscape:cx="9.7386568"
     inkscape:cy="8"
     inkscape:window-x="-9"
     inkscape:window-y="-9"
     inkscape:window-maximized="1"
     inkscape:current-layer="svg2985"
     inkscape:snap-bbox="true"
     showguides="true"
     inkscape:guide-bbox="true">
    <inkscape:grid
       type="xygrid"
       id="grid3767" />
  </sodipodi:namedview>
  <path
     inkscape:connector-curvature="0"
     d="m 2,0 c 1,0 27,0 28,0 1,0 2,1 2,2 0,1 0,11 0,12 0,1 -1,2 -2,2 C 29,16 3,16 2,16 1,16 0,15.067776 0,14 0,12.932224 0,3 0,2 0,1 1,0 2,0 z"
     id="rect2995-7-3-7"
     style="fill:url(#linearGradient4351);fill-opacity:1;stroke:none" />
  <path
     d="m 2.4375,0.5 c 0.96875,0 26.15625,0 27.125,0 0.96875,0 1.9375,0.9375 1.9375,1.8750001 0,0.9374999 0,10.3124999 0,11.2499999 0,0.9375 -0.96875,1.875 -1.9375,1.875 -0.96875,0 -26.15625,0 -27.125,0 C 1.46875,15.5 0.5,14.62604 0.5,13.625 0.5,12.623959 0.5,3.3125 0.5,2.3750001 0.5,1.4375 1.46875,0.5 2.4375,0.5 z"
     id="rect2995-7-3"
     style="fill:#a00000;fill-opacity:1;stroke:none"
     inkscape:connector-curvature="0" />
  <path
     style="fill:#ffffff;fill-opacity:1;stroke:none"
     d="M 14 2 L 12 14 L 14 14 L 14.625 10 L 17.375 10 L 18 14 L 20 14 L 18 2 L 14 2 z M 15.5625 4 L 16.40625 4 L 17.03125 8 L 14.9375 8 L 15.5625 4 z "
     id="path3926" />
  <path
     inkscape:connector-curvature="0"
     style="fill:#ffffff;fill-opacity:1;stroke:none"
     d="m 4,2 0,12 2,0 0,-5 1,0 2,5 2,0 L 9,9 C 9.9999996,9 11,8 11,7 L 11,4 C 11,3 9.9999996,2 9,2 z M 6,4 7,4 C 8,4 9,4 9,5 L 9,5.90625 C 9,6.9997079 8,7 7,7 L 6,7 z"
     id="path3926-9-4"
     sodipodi:nodetypes="ccccccccsssccsssscc" />
  <path
     inkscape:connector-curvature="0"
     style="fill:#ffffff;fill-opacity:1;stroke:none"
     d="m 21,2 0,12 2,0 0,-5 1,0 2,5 2,0 -2,-5 c 1,0 2,-1 2,-2 L 28,4 C 28,3 27,2 26,2 z m 2,2 1,0 c 1,0 2,0 2,1 l 0,0.90625 C 26,6.9997079 25,7 24,7 l -1,0 z"
     id="path3926-9-4-1"
     sodipodi:nodetypes="ccccccccsssccsssscc" />
</svg>
