<?xml version="1.0" encoding="UTF-8" standalone="no"?>
<!-- Created with Inkscape (http://www.inkscape.org/) -->

<svg
   xmlns:dc="http://purl.org/dc/elements/1.1/"
   xmlns:cc="http://creativecommons.org/ns#"
   xmlns:rdf="http://www.w3.org/1999/02/22-rdf-syntax-ns#"
   xmlns:svg="http://www.w3.org/2000/svg"
   xmlns="http://www.w3.org/2000/svg"
   xmlns:xlink="http://www.w3.org/1999/xlink"
   xmlns:sodipodi="http://sodipodi.sourceforge.net/DTD/sodipodi-0.dtd"
   xmlns:inkscape="http://www.inkscape.org/namespaces/inkscape"
   width="32"
   height="32"
   id="svg2993"
   version="1.1"
   inkscape:version="0.48.4 r9939"
   sodipodi:docname="_toolbar_refresh.svg"
   inkscape:export-filename="c:\Android\Workspace\ComittoN\res\drawable-nodpi\toolbar_thumon_s.png"
   inkscape:export-xdpi="60"
   inkscape:export-ydpi="60">
  <defs
     id="defs2995">
    <linearGradient
       id="linearGradient4022-8"
       inkscape:collect="always">
      <stop
         id="stop4024-8"
         offset="0"
         style="stop-color:#1a1a1a;stop-opacity:1" />
      <stop
         id="stop4026-2"
         offset="1"
         style="stop-color:#483737;stop-opacity:0.536" />
    </linearGradient>
    <linearGradient
       id="linearGradient4022-7"
       inkscape:collect="always">
      <stop
         id="stop4024-4"
         offset="0"
         style="stop-color:#1a1a1a;stop-opacity:1" />
      <stop
         id="stop4026-0"
         offset="1"
         style="stop-color:#483737;stop-opacity:0.536" />
    </linearGradient>
    <linearGradient
       inkscape:collect="always"
       xlink:href="#linearGradient4022-7"
       id="linearGradient4020-1"
       x1="5"
       y1="18"
       x2="5"
       y2="48"
       gradientUnits="userSpaceOnUse"
       gradientTransform="matrix(0.72727273,0,0,0.76923079,-1.4545455,14.461539)" />
    <linearGradient
       inkscape:collect="always"
       xlink:href="#linearGradient4022-8"
       id="linearGradient4020-4"
       x1="5"
       y1="18"
       x2="5"
       y2="48"
       gradientUnits="userSpaceOnUse"
       gradientTransform="matrix(0.72727273,0,0,0.76923079,-1.4545455,14.461539)" />
  </defs>
  <sodipodi:namedview
     id="base"
     pagecolor="#ffffff"
     bordercolor="#666666"
     borderopacity="1.0"
     inkscape:pageopacity="0.0"
     inkscape:pageshadow="2"
     inkscape:zoom="26.28125"
     inkscape:cx="16"
     inkscape:cy="16"
     inkscape:current-layer="svg2993"
     showgrid="true"
     inkscape:grid-bbox="true"
     inkscape:document-units="px"
     inkscape:snap-bbox="true"
     inkscape:window-width="1774"
     inkscape:window-height="1053"
     inkscape:window-x="-9"
     inkscape:window-y="-9"
     inkscape:window-maximized="1"
     inkscape:snap-global="true">
    <inkscape:grid
       type="xygrid"
       id="grid3001"
       empspacing="5"
       visible="true"
       enabled="true"
       snapvisiblegridlinesonly="true" />
  </sodipodi:namedview>
  <metadata
     id="metadata2998">
    <rdf:RDF>
      <cc:Work
         rdf:about="">
        <dc:format>image/svg+xml</dc:format>
        <dc:type
           rdf:resource="http://purl.org/dc/dcmitype/StillImage" />
        <dc:title />
      </cc:Work>
    </rdf:RDF>
  </metadata>
  <path
     style="fill:#1a1a1a;fill-opacity:1;stroke:none"
     d="M 16,1 C 7.7157287,1 1,7.7157288 1,16 c 0,8.284271 6.7157287,15 15,15 5.739946,0 10.70226,-3.230999 13.21875,-7.96875 L 24.75,20.78125 C 23.053054,23.885378 19.788301,26 16,26 10.477152,26 6,21.522847 6,16 6,10.477153 10.477152,6 16,6 c 3.736863,0 7.002707,2.0276531 8.71875,5.0625 -0.257228,0.132605 -0.484098,0.249955 -0.75,0.40625 C 22.905056,12.093982 19.9375,13.25 19.9375,13.25 c 0,0 3.398374,0.239765 5.1875,0.90625 1.789127,0.666483 5.75,2.625 5.75,2.625 0,0 0.07948,-4.093718 0.1875,-5.375 0.13085,-1.552072 0.09316,-1.303919 0.28125,-2.65625 0.188096,-1.35233 0.312501,-3.03125 0.3125,-3.03125 0,0 -1.602169,1.594497 -2.5,2.34375 -0.0323,0.026959 -0.219366,0.1723502 -0.3125,0.25 C 26.225913,3.9381309 21.469828,1 16,1 z"
     id="path4114"
     inkscape:connector-curvature="0" />
</svg>
