<?xml version="1.0" encoding="UTF-8" standalone="no"?>
<!-- Created with Inkscape (http://www.inkscape.org/) -->

<svg
   xmlns:dc="http://purl.org/dc/elements/1.1/"
   xmlns:cc="http://creativecommons.org/ns#"
   xmlns:rdf="http://www.w3.org/1999/02/22-rdf-syntax-ns#"
   xmlns:svg="http://www.w3.org/2000/svg"
   xmlns="http://www.w3.org/2000/svg"
   xmlns:xlink="http://www.w3.org/1999/xlink"
   xmlns:sodipodi="http://sodipodi.sourceforge.net/DTD/sodipodi-0.dtd"
   xmlns:inkscape="http://www.inkscape.org/namespaces/inkscape"
   version="1.1"
   width="32"
   height="32"
   id="svg2993"
   inkscape:version="0.48.4 r9939"
   sodipodi:docname="_toolbar_server.svg">
  <sodipodi:namedview
     pagecolor="#ffffff"
     bordercolor="#666666"
     borderopacity="1"
     objecttolerance="10"
     gridtolerance="10"
     guidetolerance="10"
     inkscape:pageopacity="0"
     inkscape:pageshadow="2"
     inkscape:window-width="1920"
     inkscape:window-height="1053"
     id="namedview17"
     showgrid="true"
     inkscape:zoom="26.28125"
     inkscape:cx="16"
     inkscape:cy="16"
     inkscape:window-x="1911"
     inkscape:window-y="-9"
     inkscape:window-maximized="1"
     inkscape:current-layer="svg2993"
     inkscape:snap-bbox="true">
    <inkscape:grid
       type="xygrid"
       id="grid2992" />
  </sodipodi:namedview>
  <defs
     id="defs2995">
    <linearGradient
       id="linearGradient4022-8">
      <stop
         id="stop4024-8"
         style="stop-color:#1a1a1a;stop-opacity:1"
         offset="0" />
      <stop
         id="stop4026-2"
         style="stop-color:#483737;stop-opacity:0.53600001"
         offset="1" />
    </linearGradient>
    <linearGradient
       id="linearGradient4022-7">
      <stop
         id="stop4024-4"
         style="stop-color:#1a1a1a;stop-opacity:1"
         offset="0" />
      <stop
         id="stop4026-0"
         style="stop-color:#483737;stop-opacity:0.53600001"
         offset="1" />
    </linearGradient>
    <linearGradient
       x1="5"
       y1="18"
       x2="5"
       y2="48"
       id="linearGradient4020-1"
       xlink:href="#linearGradient4022-7"
       gradientUnits="userSpaceOnUse"
       gradientTransform="matrix(0.72727273,0,0,0.76923079,-1.4545455,14.461539)" />
    <linearGradient
       x1="5"
       y1="18"
       x2="5"
       y2="48"
       id="linearGradient4020-4"
       xlink:href="#linearGradient4022-8"
       gradientUnits="userSpaceOnUse"
       gradientTransform="matrix(0.72727273,0,0,0.76923079,-1.4545455,14.461539)" />
  </defs>
  <metadata
     id="metadata2998">
    <rdf:RDF>
      <cc:Work
         rdf:about="">
        <dc:format>image/svg+xml</dc:format>
        <dc:type
           rdf:resource="http://purl.org/dc/dcmitype/StillImage" />
        <dc:title />
      </cc:Work>
    </rdf:RDF>
  </metadata>
  <path
     d="M 16,2 C 3,2 0,7 0,7 l 0,14 c 0,0 2.7337519,-3.018115 11.793549,-3.8193 l 2.635999,-3.953998 0.632803,0.23105 1.7487,3.535448 c 0.194241,0.0074 1.583142,-0.01518 1.773298,-0.0068 L 26.688949,9.0978002 27.39265,9.6127007 22.2717,17.2853 C 29.786041,18.296513 32,21 32,21 L 32,7 C 32,7 29,2 16,2 z"
     id="path3170"
     style="fill:#1a1a1a;fill-opacity:1;stroke:none"
     inkscape:connector-curvature="0"
     sodipodi:nodetypes="sccccccccccccs" />
  <path
     d="M 20.66435,19.71195 16.9184,25.093751 16.070749,24.947051 13.91985,20.114001 6.5678508,27.9171 C 8.9549291,28.471135 12.414214,29 16.09375,29 c 10.545382,0 15.8125,-3.186589 15.8125,-4.25 0,-1.736182 -4.528242,-4.199448 -11.2419,-5.03805 z m -10.638451,0.1739 C 4.3146383,20.892464 0.28125,23.166266 0.28125,24.75 c 0,0.553776 1.897903,1.850091 4.7622993,2.80845 z"
     id="path3172"
     style="fill:#1a1a1a;fill-opacity:1;stroke:none"
     inkscape:connector-curvature="0"
     sodipodi:nodetypes="cccccssccscc" />
  <path
     d="M 26.787158,9.6860879 16.551724,24.677764 14.154578,19.084423 3.7288942,30.309156 14.649227,13.909632 l 2.587396,5.174791 z"
     id="path3943"
     style="fill:#1a1a1a;fill-opacity:1;stroke:none"
     inkscape:connector-curvature="0" />
</svg>
